<?xml version="1.0" encoding="UTF-8"?>
<svg width="281px" height="100px" viewBox="0 0 281 100" version="1.1" xmlns="http://www.w3.org/2000/svg" xmlns:xlink="http://www.w3.org/1999/xlink">
    <title>CCADD6A9-9885-4A2B-9C5C-C0BD3528F3D2</title>
    <g id="UI-v2" stroke="none" stroke-width="1" fill="none" fill-rule="evenodd">
        <g id="Export" transform="translate(-1674.000000, -9520.000000)" fill="#FFFFFF" fill-rule="nonzero">
            <g id="1Asset-3" transform="translate(1674.000000, 9520.000000)">
                <path d="M64.6636203,23.4287657 L55.6400819,7.77620321 C51.36934,0.353851424 41.890804,-2.2019681 34.4675336,2.06717681 L1.93364473,20.8767174 C0.0814385125,21.9541508 -0.549842762,24.327092 0.522141514,26.1824572 L25.1667356,68.9308404 C26.2325931,70.7845442 28.5984602,71.4246536 30.4535713,70.3612477 L30.4535713,70.3612477 L63.0126657,51.5454057 L59.1058264,44.81556 L29.930559,61.6842837 L9.16759872,25.6720476 L38.3428661,8.82222792 C42.0549887,6.68790751 46.7942977,7.96224875 48.9354416,11.6704398 L57.9715827,27.3040982 L28.7774113,44.1728219 L32.6590451,50.9089689 L68.5767609,30.1586114 C70.3589769,29.1326893 72.4758435,28.8570777 74.461337,29.3924519 C76.4468305,29.927826 78.1381787,31.2302955 79.1630351,33.0131246 L92.1501249,55.5341625 C94.2798794,59.2647142 92.9958739,64.0149712 89.2767077,66.1645461 L46.7173651,90.8028389 L37.6938267,75.1502764 L30.9828851,79.0256089 L41.9472404,98.0430942 C42.4579682,98.941479 43.3068706,99.5982113 44.304737,99.8669132 C45.3026035,100.135615 46.3664946,99.9939529 47.2592815,99.4735015 L47.2592815,99.4735015 L93.1772456,72.9195972 C100.59999,68.6037118 103.135529,59.0982567 98.8484639,51.65883 L85.8676753,29.1314907 C83.8156155,25.5596331 80.4267381,22.9509992 76.4487351,21.8811351 C72.4707322,20.811271 68.2305195,21.3680991 64.6636203,23.4287657 Z" id="Path"></path>
                <path d="M108.300494,84.4825812 L110.146791,82.1132722 C112.075374,84.382029 114.90086,85.6922992 117.878552,85.6987424 C122.289499,85.6987424 123.6884,83.3294335 123.6884,81.4075206 C123.6884,75.0431534 109.075561,78.5908155 109.075561,69.7878245 C109.075561,65.71715 112.698839,62.9067463 117.582388,62.9067463 C121.325392,62.9067463 124.242919,64.167017 126.316064,66.3850935 L124.469768,68.6409781 C122.629347,66.665237 120.022507,65.5848008 117.324033,65.6793419 C114.400205,65.6793419 112.28295,67.267283 112.28295,69.5987839 C112.28295,75.1502764 126.895789,71.9680928 126.895789,81.1806719 C126.895789,84.7346353 124.457165,88.4335299 117.796634,88.4335299 C113.518015,88.4020232 110.335832,86.7762739 108.300494,84.4825812 Z" id="Path"></path>
                <path d="M130.43715,75.6165766 C130.43715,68.3259104 135.396315,62.8500341 142.686981,62.8500341 C149.977647,62.8500341 155.012429,68.3511158 155.012429,75.6165766 C155.012429,82.8820374 150.015455,88.3768177 142.731091,88.3768177 C135.446726,88.3768177 130.43715,82.9261468 130.43715,75.6165766 Z M151.786136,75.6165766 C151.786136,69.8382353 148.194364,65.5848216 142.686981,65.5848216 C137.179598,65.5848216 133.619333,69.8382353 133.619333,75.6165766 C133.619333,81.3949179 137.160694,85.6987424 142.712187,85.6987424 C148.263679,85.6987424 151.811341,81.3760138 151.811341,75.6165766 L151.786136,75.6165766 Z" id="Shape"></path>
                <polygon id="Path" points="158.610502 88.4020232 158.610502 62.8752395 174.779775 62.8752395 174.779775 65.610027 161.679261 65.610027 161.679261 73.9719233 171.194305 73.9719233 171.194305 76.7130121 161.679261 76.7130121 161.679261 88.4020232"></polygon>
                <polygon id="Path" points="186.260842 88.4020232 186.260842 65.610027 178.453465 65.610027 178.453465 62.8752395 197.174786 62.8752395 197.174786 65.610027 189.329601 65.610027 189.329601 88.4020232"></polygon>
                <path d="M202.606553,11.5885222 L189.37371,11.5885222 L189.37371,51.2870502 L202.606553,51.2870502 C213.561616,51.2766168 222.436913,42.3928537 222.436913,31.4377862 L222.436913,31.4377862 C222.436913,20.4827186 213.561616,11.5989556 202.606553,11.5885222 L202.606553,11.5885222 Z M214.875315,31.4377862 C214.875315,38.2171019 209.379567,43.7128231 202.600252,43.7128231 L196.929033,43.7128231 L196.929033,19.1375438 L202.600252,19.1375438 C205.860166,19.1375438 208.986195,20.4342555 211.288937,22.7417258 C213.591679,25.0491961 214.881982,28.177879 214.875315,31.4377862 Z" id="Shape"></path>
                <path d="M181.786881,51.2870502 L169.505542,11.638933 L161.011318,11.638933 L148.711075,51.2870502 L156.64448,51.2870502 L158.994884,43.7254258 L171.509373,43.7254258 L173.866079,51.2870502 L181.786881,51.2870502 Z M161.622549,35.2248997 L165.245827,23.5547928 L168.875407,35.2248997 L161.622549,35.2248997 Z" id="Shape"></path>
                <rect id="Rectangle" x="230.030044" y="11.5885222" width="7.57422709" height="39.698528"></rect>
                <polygon id="Path" points="272.589387 11.5885222 272.589387 36.6931151 254.649433 11.5885222 247.075206 11.5885222 247.075206 51.2870502 254.649433 51.2870502 254.649433 26.1824572 272.589387 51.2870502 280.163614 51.2870502 280.163614 11.5885222"></polygon>
                <path d="M137.406447,30.15231 C139.91815,26.548091 140.213779,21.8451181 138.173187,17.9547415 C136.132594,14.0643649 132.095396,11.6340604 127.702362,11.6514421 L108.319398,11.6514421 L108.319398,27.0961535 L108.319398,27.0961535 L108.319398,51.2870502 L129.586467,51.2870502 C136.189004,51.2040144 141.477834,45.7911393 141.407806,39.1884512 L141.407806,39.1884512 C141.411498,35.7461625 139.957747,32.463204 137.406447,30.15231 L137.406447,30.15231 Z M115.893625,19.3832915 L127.425103,19.3832915 C128.451234,19.3816241 129.436002,19.7876497 130.162768,20.5120524 C130.889534,21.236455 131.298765,22.2198951 131.300435,23.2460264 L131.300435,23.2460264 C131.299,25.2450389 129.774961,26.9138336 127.78428,27.0961535 L115.893625,27.0961535 L115.893625,19.3832915 Z M129.265098,43.6876177 L115.874721,43.6876177 L115.874721,35.2185984 L129.265098,35.2185984 C131.449265,35.425213 133.117942,37.2591901 133.117942,39.453108 C133.117942,41.6470259 131.449265,43.4810031 129.265098,43.6876177 Z" id="Shape"></path>
            </g>
        </g>
    </g>
</svg>